<?xml version="1.0" encoding="UTF-8"?>
<svg xmlns="http://www.w3.org/2000/svg" width="820" height="592" viewBox="0 0 820 592" role="img" aria-label="agentit assess terminal output">
  <defs>
    <linearGradient id="bg" x1="0" y1="0" x2="1" y2="1">
      <stop offset="0%" stop-color="#0b1220"/>
      <stop offset="100%" stop-color="#121a2b"/>
    </linearGradient>
  </defs>
  <rect width="100%" height="100%" rx="12" fill="url(#bg)"/>
  <circle cx="22" cy="22" r="6" fill="#ff5f56"/>
  <circle cx="42" cy="22" r="6" fill="#ffbd2e"/>
  <circle cx="62" cy="22" r="6" fill="#27c93f"/>
  <text x="90" y="27" fill="#8b9bb4" font-family="ui-monospace, SFMono-Regular, Menlo, monospace" font-size="12">agentit assess ./examples/sample-app --no-llm</text>
  <style>
    .t { fill: #d7e0ea; font-family: ui-monospace, SFMono-Regular, Menlo, monospace; font-size: 13px; }
  </style>
  <text x="20" y="62" class="t">  SAMPLE-APP — ENTERPRISE READINESS ASSESSMENT</text><text x="20" y="80" class="t">  =======================================================</text><text x="20" y="98" class="t"> </text><text x="20" y="116" class="t">  Stack: Python</text><text x="20" y="134" class="t">  Architecture: monolith (1 service(s))</text><text x="20" y="152" class="t">  Auth: None detected</text><text x="20" y="170" class="t"> </text><text x="20" y="188" class="t">  SCORES:</text><text x="20" y="206" class="t">    security                 0/100  ░░░░░░░░░░</text><text x="20" y="224" class="t">    observability            0/100  ░░░░░░░░░░</text><text x="20" y="242" class="t">    compliance               0/100  ░░░░░░░░░░</text><text x="20" y="260" class="t">    data governance          0/100  ░░░░░░░░░░</text><text x="20" y="278" class="t">    ha dr                    0/100  ░░░░░░░░░░</text><text x="20" y="296" class="t">    infrastructure          12/100  █░░░░░░░░░</text><text x="20" y="314" class="t">    cicd                    17/100  █░░░░░░░░░</text><text x="20" y="332" class="t"> </text><text x="20" y="350" class="t">  OVERALL: 4/100</text><text x="20" y="368" class="t"> </text><text x="20" y="386" class="t">  CRITICAL &amp; HIGH FINDINGS:</text><text x="20" y="404" class="t">    [HIGH] No NetworkPolicy manifests found</text><text x="20" y="422" class="t">    [HIGH] No container or dependency vulnerability scanning detected in CI</text><text x="20" y="440" class="t">    [HIGH] No OpenTelemetry or metrics instrumentation detected</text><text x="20" y="458" class="t">    [HIGH] No Prometheus metrics or ServiceMonitor found</text><text x="20" y="476" class="t">    [HIGH] No liveness/readiness probes detected in manifests</text><text x="20" y="494" class="t">    [HIGH] No Prometheus ServiceMonitor found</text><text x="20" y="512" class="t">    [HIGH] No CI/CD pipeline configuration found</text><text x="20" y="530" class="t">    [HIGH] No GitLab CI pipeline configuration found</text><text x="20" y="548" class="t">    [HIGH] No IaC tooling detected (no Helm chart, Kustomize, or Terraform)</text>
</svg>
